<svg xmlns="http://www.w3.org/2000/svg" data-name="Layer 1" viewBox="0 0 105 131.25" x="0px" y="0px"><title>music_icons</title><path d="M102.29,41c-2-17.75-28.87-30.43-30-31a2.55,2.55,0,0,0-.85-0.2,3.11,3.11,0,0,0-1.22-.27,3,3,0,0,0-3.08,3l0,58.31a13.6,13.6,0,1,0,5.61,12.06h0V82.43c0-.19,0-0.37,0-0.56s0-.27,0-0.41l0.5-65.14c6.84,3.74,22.57,13.53,23.89,25.22a25,25,0,0,1-9.42,22.73,2.59,2.59,0,0,0,3,4.25A30.16,30.16,0,0,0,102.29,41ZM59.17,88.72A6.84,6.84,0,1,1,66,81.88,6.85,6.85,0,0,1,59.17,88.72Zm-4.2-70H4.08A1.58,1.58,0,0,1,2.5,17.15v-4A1.58,1.58,0,0,1,4.08,11.6H55a1.58,1.58,0,0,1,1.58,1.58v4A1.58,1.58,0,0,1,55,18.73Zm0,20.64H4.08A1.58,1.58,0,0,1,2.5,37.79v-4a1.58,1.58,0,0,1,1.58-1.58H55a1.58,1.58,0,0,1,1.58,1.58v4A1.58,1.58,0,0,1,55,39.37ZM55,60H4.08A1.58,1.58,0,0,1,2.5,58.44v-4a1.58,1.58,0,0,1,1.58-1.58H55a1.58,1.58,0,0,1,1.58,1.58v4A1.58,1.58,0,0,1,55,60Z"/></svg>